<svg xmlns="http://www.w3.org/2000/svg" class="icon icon-tabler icon-tabler-triangles" width="250px" height="250px" viewBox="0 0 24 24" stroke-width="1.00" stroke="rgba(1, 1, 1, 1)" fill="none" stroke-linecap="round" stroke-linejoin="round"><circle cx="50%" cy="50%" r="50%" stroke="none" stroke-width="0" fill="rgba(255, 255, 255, 1)"/><g transform="translate(2.40, 2.40) scale(0.8)"><path stroke="none" d="M0 0h24v24H0z" fill="none"/><path d="M9.974 21h8.052a0.975 .975 0 0 0 .81 -1.517l-4.025 -6.048a0.973 .973 0 0 0 -1.622 0l-4.025 6.048a0.977 .977 0 0 0 .81 1.517z"/><path d="M4.98 16h14.04c.542 0 .98 -.443 .98 -.989a0.995 .995 0 0 0 -.156 -.534l-7.02 -11.023a0.974 .974 0 0 0 -1.648 0l-7.02 11.023a0.994 .994 0 0 0 .294 1.366a0.973 .973 0 0 0 .53 .157z"/></g>
  
  
  
</svg>