<svg width="13" height="13" viewBox="0 0 13 13" fill="none" xmlns="http://www.w3.org/2000/svg"><path d="M6.25301 0C5.25212 0 -0.088419 5.68117 0.324607 7.22529C0.514688 7.93527 2.68452 8.05875 2.68452 8.05875C2.68452 8.05875 3.4079 9.61229 3.18597 10.3862C3.09957 10.6874 2.19796 11.7577 3.6854 12.6938C3.6854 12.6938 4.5223 12.1726 4.5677 11.1137C4.56126 11.223 4.49519 12.6538 5.4378 13C5.43848 13 6.25233 12.8284 6.25335 11.2129C6.25436 12.8284 7.06856 12.9997 7.0689 13C8.01184 12.6538 7.94543 11.223 7.939 11.1137C7.9844 12.1726 8.82129 12.6938 8.82129 12.6938C10.3087 11.7577 9.40712 10.6874 9.32072 10.3862C9.09879 9.61263 9.82218 8.05875 9.82218 8.05875C9.82218 8.05875 11.9923 7.93527 12.1821 7.22529C12.5948 5.68117 7.25389 0 6.25301 0Z" fill="#FF9650" fill-opacity="0.4"></path><path d="M12.5063 0.216019H11.3855L6.25333 5.70943L1.12117 0.216019H0L5.69258 6.30938L0 12.4027H1.12117L6.25333 6.90933L11.3855 12.4027H12.5063L6.81375 6.30938L12.5063 0.216019Z" fill="#8F8F8F"></path></svg>
