<svg width="17" height="20" viewBox="0 0 17 20" fill="none" xmlns="http://www.w3.org/2000/svg"><path d="M12.2876 14.4764C12.2239 14.8972 12.4817 15.6626 12.9418 16.1204C13.4019 16.5783 14.3002 17.4065 14.0039 18.4767C13.7555 19.3739 12.4259 19.8906 11.6729 19.2935C11.0453 18.7959 10.9849 17.9293 11.0573 16.6812C11.1044 15.8705 10.7869 15.3786 10.2999 14.909C10.0236 14.6426 9.41723 14.4199 8.96012 15.0617C8.56968 15.6094 8.73554 16.2624 8.93126 16.8262C9.12697 17.3897 9.22085 18.4282 8.66489 18.9793C8.10892 19.5303 7.2219 19.5882 6.56642 19.0546C5.91094 18.5211 6.03235 17.4375 6.50173 16.761C6.97112 16.0844 7.26071 15.7278 7.15556 15.3019C7.07262 14.9655 6.67025 14.7428 6.35246 14.9309C6.03467 15.1189 5.89004 15.4059 5.63295 15.5465C5.3082 15.7241 4.83616 15.6178 4.60296 15.3864C4.40625 15.1909 4.37175 14.9369 4.4099 14.7896C4.44804 14.6422 4.31701 14.4781 4.14651 14.4501C3.81014 14.3953 3.38853 14.2368 3.14936 14.0165C2.8037 13.6982 2.54463 13.2141 2.76953 12.7075C2.92743 12.3519 3.24356 12.1777 3.4552 12.0824C3.61244 12.0115 3.76171 11.8594 3.84531 11.6293C3.89108 11.5035 3.94316 11.1805 3.54808 10.9306C3.23262 10.7311 2.92213 10.7502 2.59273 10.9423C2.20262 11.1698 1.89545 11.0254 1.73423 10.8616C1.47217 10.5955 1.41976 10.1178 1.70471 9.7484C1.99132 9.377 2.35787 9.3521 2.6259 9.48499C2.85014 9.59634 3.13177 9.60778 3.292 9.39517C3.45918 9.17313 3.47909 8.91006 3.31787 8.71527C3.06012 8.40476 2.70153 8.25808 2.18139 8.27356C1.66125 8.2887 0.610691 8.26347 0.213289 7.58323C-0.184113 6.903 -0.100851 5.77231 1.10894 5.54254C1.88384 5.39553 2.37976 5.85474 2.74101 6.31764C2.94369 6.57735 3.16262 6.85523 3.44127 6.88147C3.91364 6.92622 4.20688 6.42159 4.14916 5.81504C4.12362 5.54523 4.31502 5.29898 4.54922 5.19772C4.75389 5.10924 4.99107 5.17316 5.17385 4.97669C5.36724 4.76845 5.44255 4.51614 5.29891 4.34154C5.16456 4.17872 5.03984 3.90286 5.15196 3.5799C5.29294 3.17485 5.76133 2.84853 6.23005 3.10723C6.63807 3.3323 6.70541 3.80664 6.73095 3.96913C6.75649 4.13162 6.86729 4.37586 7.08523 4.50336C7.30317 4.63086 7.65878 4.54911 7.85051 4.28368C8.04225 4.01825 8.0794 3.69024 8.00543 3.3656C7.93112 3.0413 7.79047 2.32877 8.05983 1.84231C8.43733 1.16074 9.38937 1.22937 9.85278 1.74543C10.2465 2.18378 10.1994 2.64096 10.1507 3.00967C10.092 3.45711 10.2903 3.76123 10.5106 3.89377C10.7637 4.04617 11.2245 4.17199 11.6636 3.79924C12.0209 3.49579 12.2355 2.88857 12.3284 2.52591C12.5583 1.62869 12.8466 0.462005 13.8596 0.096658C15.0276 -0.324534 16.1684 0.712634 16.1366 1.62802C16.1127 2.31431 15.8334 2.94138 15.2237 3.35786C14.4534 3.88334 13.6739 4.72438 13.5973 5.32555C13.5601 5.61689 13.7299 6.31293 14.402 6.33884C14.9523 6.36003 15.2851 5.8877 15.9329 6.26516C16.3933 6.53362 16.6308 7.3279 16.181 7.92907C15.6914 8.5834 15.1928 8.21536 14.7583 8.6823C14.3523 9.1183 14.2624 9.65925 14.6007 10.0233C14.7951 10.2325 15.1169 10.43 15.5644 10.2712C16.1067 10.0788 16.6584 10.3573 16.8912 10.7819C17.2117 11.3662 16.7735 12.3499 16.2338 12.6116C15.5806 12.9279 15.0963 12.4818 14.7958 12.0485C14.6355 11.8177 14.3071 11.6969 14.0043 11.8712C13.7963 11.9909 13.5256 12.3509 13.6099 12.7102C13.6941 13.0692 14.1934 13.2263 14.1754 13.638C14.1575 14.0498 13.8845 14.2954 13.6712 14.3677C13.4579 14.44 13.2665 14.4024 13.0562 14.2779C12.8724 14.1689 12.7534 14.0562 12.5769 14.0969C12.4555 14.1248 12.3151 14.3004 12.2883 14.4777L12.2876 14.4764Z" fill="#EAFF3E"></path></svg>
